<svg xmlns="http://www.w3.org/2000/svg" fill="none" viewBox="0 0 101 44" height="44" width="101">
<path fill="#28030F" d="M12.8517 15.445H17.2247L19.9104 24.5339H19.9477L21.7874 15.445H25.0926L22.3153 28.5516H17.9572L15.217 19.4824H15.1799L13.3574 28.5516H10.0522L12.8517 15.445ZM46.7947 18.4123C46.1187 18.0941 45.1985 17.813 43.9039 17.813C42.5153 17.813 41.3882 18.0179 41.3882 19.0709C41.3882 20.928 46.4765 20.2348 46.4765 24.2159C46.4765 27.839 43.1144 28.7784 40.0734 28.7784C38.7219 28.7784 37.1629 28.458 36.0188 28.1002L36.8449 25.4344C37.5378 25.886 38.9289 26.1863 40.0734 26.1863C41.1639 26.1863 42.8703 25.9794 42.8703 24.6277C42.8703 22.5239 37.7821 23.3129 37.7821 19.6159C37.7821 16.2345 40.7493 15.2207 43.6228 15.2207C45.2381 15.2207 46.7576 15.3908 47.6407 15.8026L46.7947 18.4123ZM26.3873 15.445H29.897L28.8663 20.4592H33.0145L34.0482 15.445H37.5577L34.8349 28.5516H31.3254L32.4891 22.9382H28.3382L27.1742 28.5516H23.6642L26.3873 15.445Z" clip-rule="evenodd" fill-rule="evenodd"></path>
<path fill="#28030F" d="M56.9957 14.6818V20.5H56.0582L53.3168 16.5369H53.2685V20.5H52.2145V14.6818H53.1577L55.8963 18.6477H55.9474V14.6818H56.9957ZM58.1442 20.5V14.6818H59.1982V17.1449H61.8942V14.6818H62.951V20.5H61.8942V18.0284H59.1982V20.5H58.1442ZM67.2592 16.2812C67.2327 16.0331 67.121 15.84 66.924 15.7017C66.7289 15.5634 66.4751 15.4943 66.1626 15.4943C65.9429 15.4943 65.7545 15.5275 65.5973 15.5938C65.4401 15.66 65.3198 15.75 65.2365 15.8636C65.1532 15.9773 65.1106 16.107 65.1087 16.2528C65.1087 16.3741 65.1361 16.4792 65.1911 16.5682C65.2479 16.6572 65.3246 16.733 65.4212 16.7955C65.5178 16.8561 65.6248 16.9072 65.7422 16.9489C65.8596 16.9905 65.978 17.0256 66.0973 17.054L66.6428 17.1903C66.8625 17.2415 67.0736 17.3106 67.2763 17.3977C67.4808 17.4848 67.6636 17.5947 67.8246 17.7273C67.9875 17.8598 68.1162 18.0199 68.2109 18.2074C68.3056 18.3949 68.353 18.6146 68.353 18.8665C68.353 19.2074 68.2659 19.5076 68.0916 19.767C67.9174 20.0246 67.6655 20.2263 67.3359 20.3722C67.0083 20.5161 66.6115 20.5881 66.1456 20.5881C65.6929 20.5881 65.3 20.518 64.9666 20.3778C64.6352 20.2377 64.3757 20.0331 64.1882 19.7642C64.0026 19.4953 63.9022 19.1676 63.8871 18.7812H64.924C64.9392 18.9839 65.0017 19.1525 65.1115 19.2869C65.2214 19.4214 65.3643 19.5218 65.5405 19.5881C65.7185 19.6544 65.9174 19.6875 66.1371 19.6875C66.3662 19.6875 66.567 19.6534 66.7393 19.5852C66.9136 19.5152 67.05 19.4186 67.1484 19.2955C67.2469 19.1705 67.2971 19.0246 67.299 18.858C67.2971 18.7064 67.2526 18.5814 67.1655 18.483C67.0784 18.3826 66.9562 18.2992 66.799 18.233C66.6437 18.1648 66.4619 18.1042 66.2536 18.0511L65.5916 17.8807C65.1125 17.7576 64.7337 17.571 64.4553 17.321C64.1787 17.0691 64.0405 16.7348 64.0405 16.3182C64.0405 15.9754 64.1333 15.6752 64.3189 15.4176C64.5064 15.16 64.7611 14.9602 65.0831 14.8182C65.4051 14.6742 65.7696 14.6023 66.1768 14.6023C66.5897 14.6023 66.9515 14.6742 67.2621 14.8182C67.5746 14.9602 67.8198 15.1581 67.9979 15.4119C68.1759 15.6638 68.2678 15.9536 68.2734 16.2812H67.2592Z"></path>
<path fill="#28030F" d="M57.3587 25.6449H56.2962C56.2659 25.4706 56.21 25.3163 56.1286 25.1818C56.0471 25.0455 55.9458 24.9299 55.8246 24.8352C55.7034 24.7405 55.5651 24.6695 55.4098 24.6222C55.2564 24.5729 55.0907 24.5483 54.9126 24.5483C54.5964 24.5483 54.3161 24.6278 54.0717 24.7869C53.8274 24.9441 53.6361 25.1752 53.4979 25.4801C53.3596 25.7831 53.2905 26.1534 53.2905 26.5909C53.2905 27.036 53.3596 27.411 53.4979 27.7159C53.638 28.0189 53.8293 28.2481 54.0717 28.4034C54.3161 28.5568 54.5954 28.6335 54.9098 28.6335C55.084 28.6335 55.2469 28.6108 55.3984 28.5653C55.5518 28.518 55.6892 28.4489 55.8104 28.358C55.9335 28.267 56.0367 28.1553 56.12 28.0227C56.2053 27.8902 56.264 27.7386 56.2962 27.5682L57.3587 27.5739C57.3189 27.8504 57.2327 28.1098 57.1001 28.3523C56.9695 28.5947 56.7981 28.8087 56.5859 28.9943C56.3738 29.178 56.1257 29.322 55.8416 29.4261C55.5575 29.5284 55.2422 29.5795 54.8956 29.5795C54.3842 29.5795 53.9278 29.4612 53.5263 29.2244C53.1248 28.9877 52.8085 28.6458 52.5774 28.1989C52.3464 27.7519 52.2308 27.2159 52.2308 26.5909C52.2308 25.964 52.3473 25.428 52.5803 24.983C52.8132 24.536 53.1304 24.1941 53.532 23.9574C53.9335 23.7206 54.388 23.6023 54.8956 23.6023C55.2195 23.6023 55.5206 23.6477 55.799 23.7386C56.0774 23.8295 56.3255 23.9631 56.5433 24.1392C56.7611 24.3134 56.9401 24.5275 57.0803 24.7812C57.2223 25.0331 57.3151 25.321 57.3587 25.6449ZM60.1818 29.5852C59.7557 29.5852 59.3864 29.4915 59.0739 29.304C58.7614 29.1165 58.5189 28.8542 58.3466 28.517C58.1761 28.1799 58.0909 27.786 58.0909 27.3352C58.0909 26.8845 58.1761 26.4896 58.3466 26.1506C58.5189 25.8116 58.7614 25.5483 59.0739 25.3608C59.3864 25.1733 59.7557 25.0795 60.1818 25.0795C60.608 25.0795 60.9773 25.1733 61.2898 25.3608C61.6023 25.5483 61.8438 25.8116 62.0142 26.1506C62.1866 26.4896 62.2727 26.8845 62.2727 27.3352C62.2727 27.786 62.1866 28.1799 62.0142 28.517C61.8438 28.8542 61.6023 29.1165 61.2898 29.304C60.9773 29.4915 60.608 29.5852 60.1818 29.5852ZM60.1875 28.7614C60.4186 28.7614 60.6117 28.6979 60.767 28.571C60.9223 28.4422 61.0379 28.2699 61.1136 28.054C61.1913 27.8381 61.2301 27.5975 61.2301 27.3324C61.2301 27.0653 61.1913 26.8239 61.1136 26.608C61.0379 26.3902 60.9223 26.2169 60.767 26.0881C60.6117 25.9593 60.4186 25.8949 60.1875 25.8949C59.9508 25.8949 59.7538 25.9593 59.5966 26.0881C59.4413 26.2169 59.3248 26.3902 59.2472 26.608C59.1714 26.8239 59.1335 27.0653 59.1335 27.3324C59.1335 27.5975 59.1714 27.8381 59.2472 28.054C59.3248 28.2699 59.4413 28.4422 59.5966 28.571C59.7538 28.6979 59.9508 28.7614 60.1875 28.7614ZM63.1456 29.5V25.1364H64.1286V25.8778H64.1797C64.2706 25.6278 64.4212 25.4328 64.6314 25.2926C64.8416 25.1506 65.0926 25.0795 65.3842 25.0795C65.6797 25.0795 65.9287 25.1515 66.1314 25.2955C66.3359 25.4375 66.4799 25.6316 66.5632 25.8778H66.6087C66.7053 25.6354 66.8681 25.4422 67.0973 25.2983C67.3284 25.1525 67.602 25.0795 67.9183 25.0795C68.3198 25.0795 68.6475 25.2064 68.9013 25.4602C69.1551 25.714 69.282 26.0843 69.282 26.571V29.5H68.2507V26.7301C68.2507 26.4593 68.1787 26.2614 68.0348 26.1364C67.8909 26.0095 67.7147 25.946 67.5064 25.946C67.2583 25.946 67.0642 26.0237 66.924 26.179C66.7857 26.3324 66.7166 26.5322 66.7166 26.7784V29.5H65.7081V26.6875C65.7081 26.4621 65.6399 26.2822 65.5036 26.1477C65.3691 26.0133 65.1929 25.946 64.9751 25.946C64.8274 25.946 64.6929 25.9839 64.5717 26.0597C64.4505 26.1335 64.3539 26.2386 64.282 26.375C64.21 26.5095 64.174 26.6667 64.174 26.8466V29.5H63.1456ZM70.3253 31.1364V25.1364H71.3366V25.858H71.3963C71.4493 25.7519 71.5241 25.6392 71.6207 25.5199C71.7173 25.3987 71.848 25.2955 72.0128 25.2102C72.1776 25.1231 72.3878 25.0795 72.6435 25.0795C72.9806 25.0795 73.2846 25.1657 73.5554 25.3381C73.8281 25.5085 74.044 25.7614 74.2031 26.0966C74.3641 26.4299 74.4446 26.839 74.4446 27.3239C74.4446 27.803 74.366 28.2102 74.2088 28.5455C74.0516 28.8807 73.8376 29.1364 73.5668 29.3125C73.2959 29.4886 72.9891 29.5767 72.6463 29.5767C72.3963 29.5767 72.1889 29.535 72.0241 29.4517C71.8594 29.3684 71.7268 29.268 71.6264 29.1506C71.5279 29.0312 71.4512 28.9186 71.3963 28.8125H71.3537V31.1364H70.3253ZM71.3338 27.3182C71.3338 27.6004 71.3736 27.8475 71.4531 28.0597C71.5346 28.2718 71.651 28.4375 71.8026 28.5568C71.956 28.6742 72.1416 28.733 72.3594 28.733C72.5866 28.733 72.777 28.6723 72.9304 28.5511C73.0838 28.428 73.1993 28.2604 73.277 28.0483C73.3565 27.8343 73.3963 27.5909 73.3963 27.3182C73.3963 27.0473 73.3575 26.8068 73.2798 26.5966C73.2022 26.3864 73.0866 26.2216 72.9332 26.1023C72.7798 25.983 72.5885 25.9233 72.3594 25.9233C72.1397 25.9233 71.9531 25.9811 71.7997 26.0966C71.6463 26.2121 71.5298 26.3741 71.4503 26.5824C71.3726 26.7907 71.3338 27.036 71.3338 27.3182ZM76.3537 23.6818V29.5H75.3253V23.6818H76.3537ZM77.4112 29.5V25.1364H78.4396V29.5H77.4112ZM77.9283 24.517C77.7654 24.517 77.6252 24.4631 77.5078 24.3551C77.3904 24.2453 77.3317 24.1136 77.3317 23.9602C77.3317 23.8049 77.3904 23.6733 77.5078 23.5653C77.6252 23.4555 77.7654 23.4006 77.9283 23.4006C78.093 23.4006 78.2332 23.4555 78.3487 23.5653C78.4661 23.6733 78.5249 23.8049 78.5249 23.9602C78.5249 24.1136 78.4661 24.2453 78.3487 24.3551C78.2332 24.4631 78.093 24.517 77.9283 24.517ZM80.7528 29.5881C80.4763 29.5881 80.2273 29.5388 80.0057 29.4403C79.786 29.34 79.6117 29.1922 79.483 28.9972C79.3561 28.8021 79.2926 28.5616 79.2926 28.2756C79.2926 28.0294 79.3381 27.8258 79.429 27.6648C79.5199 27.5038 79.6439 27.375 79.8011 27.2784C79.9583 27.1818 80.1354 27.1089 80.3324 27.0597C80.5313 27.0085 80.7367 26.9716 80.9489 26.9489C81.2045 26.9223 81.4119 26.8987 81.571 26.8778C81.7301 26.8551 81.8456 26.821 81.9176 26.7756C81.9915 26.7282 82.0284 26.6553 82.0284 26.5568V26.5398C82.0284 26.3258 81.965 26.16 81.8381 26.0426C81.7112 25.9252 81.5284 25.8665 81.2898 25.8665C81.0379 25.8665 80.8381 25.9214 80.6903 26.0312C80.5445 26.1411 80.446 26.2708 80.3949 26.4205L79.4347 26.2841C79.5104 26.0189 79.6354 25.7973 79.8097 25.6193C79.9839 25.4394 80.197 25.3049 80.4489 25.2159C80.7008 25.125 80.9792 25.0795 81.2841 25.0795C81.4943 25.0795 81.7036 25.1042 81.9119 25.1534C82.1203 25.2027 82.3106 25.2841 82.483 25.3977C82.6553 25.5095 82.7936 25.6619 82.8977 25.8551C83.0038 26.0483 83.0568 26.2898 83.0568 26.5795V29.5H82.0682V28.9006H82.0341C81.9716 29.0218 81.8835 29.1354 81.7699 29.2415C81.6581 29.3456 81.517 29.4299 81.3466 29.4943C81.178 29.5568 80.9801 29.5881 80.7528 29.5881ZM81.0199 28.8324C81.2263 28.8324 81.4053 28.7917 81.5568 28.7102C81.7083 28.6269 81.8248 28.517 81.9062 28.3807C81.9896 28.2443 82.0312 28.0956 82.0312 27.9347V27.4205C81.9991 27.447 81.9441 27.4716 81.8665 27.4943C81.7907 27.517 81.7055 27.5369 81.6108 27.554C81.5161 27.571 81.4223 27.5862 81.3295 27.5994C81.2367 27.6127 81.1563 27.6241 81.0881 27.6335C80.9347 27.6544 80.7973 27.6884 80.6761 27.7358C80.5549 27.7831 80.4593 27.8494 80.3892 27.9347C80.3191 28.018 80.2841 28.1259 80.2841 28.2585C80.2841 28.4479 80.3532 28.5909 80.4915 28.6875C80.6297 28.7841 80.8059 28.8324 81.0199 28.8324ZM85.1193 26.9432V29.5H84.0909V25.1364H85.0739V25.8778H85.125C85.2254 25.6335 85.3854 25.4394 85.6051 25.2955C85.8267 25.1515 86.1004 25.0795 86.4261 25.0795C86.7273 25.0795 86.9896 25.1439 87.2131 25.2727C87.4384 25.4015 87.6127 25.5881 87.7358 25.8324C87.8608 26.0767 87.9223 26.3731 87.9205 26.7216V29.5H86.892V26.8807C86.892 26.589 86.8163 26.3608 86.6648 26.196C86.5152 26.0312 86.3078 25.9489 86.0426 25.9489C85.8627 25.9489 85.7027 25.9886 85.5625 26.0682C85.4242 26.1458 85.3153 26.2585 85.2358 26.4062C85.1581 26.554 85.1193 26.733 85.1193 26.9432ZM91.1449 25.1364V25.9318H88.6364V25.1364H91.1449ZM89.2557 24.0909H90.2841V28.1875C90.2841 28.3258 90.3049 28.4318 90.3466 28.5057C90.3902 28.5777 90.447 28.6269 90.517 28.6534C90.5871 28.6799 90.6648 28.6932 90.75 28.6932C90.8144 28.6932 90.8731 28.6884 90.9261 28.679C90.9811 28.6695 91.0227 28.661 91.0511 28.6534L91.2244 29.4574C91.1695 29.4763 91.0909 29.4972 90.9886 29.5199C90.8883 29.5426 90.7652 29.5559 90.6193 29.5597C90.3617 29.5672 90.1297 29.5284 89.9233 29.4432C89.7169 29.3561 89.553 29.2216 89.4318 29.0398C89.3125 28.858 89.2538 28.6307 89.2557 28.358V24.0909Z"></path>
</svg>
